<svg xmlns="http://www.w3.org/2000/svg" width="1440" height="999" viewBox="0 0 1440 999" fill="none">
<g filter="url(#filter0_b_2_7797)">
<g clip-path="url(#clip0_2_7797)">
<rect x="80" y="80.1409" width="1280" height="838" rx="20" fill="white"/>
<path d="M101 104.835C98.6989 104.835 96.8335 102.969 96.8335 100.668C96.8335 98.3666 98.6989 96.5012 101 96.5012C103.301 96.5012 105.167 98.3666 105.167 100.668C105.167 102.969 103.301 104.835 101 104.835Z" fill="#E11D48"/>
<path d="M116 104.835C113.699 104.835 111.833 102.969 111.833 100.668C111.833 98.3666 113.699 96.5012 116 96.5012C118.301 96.5012 120.167 98.3666 120.167 100.668C120.167 102.969 118.301 104.835 116 104.835Z" fill="#FBBF24"/>
<path d="M131 104.835C128.699 104.835 126.833 102.969 126.833 100.668C126.833 98.3666 128.699 96.5012 131 96.5012C133.301 96.5012 135.167 98.3666 135.167 100.668C135.167 102.969 133.301 104.835 131 104.835Z" fill="#22C55E"/>
<path d="M1301.76 100.641L1306.71 105.591C1306.8 105.683 1306.88 105.793 1306.93 105.915C1306.98 106.037 1307.01 106.169 1307.01 106.301C1307.01 106.434 1306.99 106.566 1306.94 106.689C1306.89 106.812 1306.81 106.923 1306.72 107.017C1306.63 107.111 1306.51 107.185 1306.39 107.236C1306.27 107.286 1306.14 107.311 1306 107.31C1305.87 107.309 1305.74 107.281 1305.62 107.229C1305.5 107.176 1305.39 107.1 1305.29 107.005L1299.64 101.348C1299.45 101.16 1299.34 100.906 1299.34 100.641C1299.34 100.376 1299.45 100.121 1299.64 99.9338L1305.29 94.2768C1305.48 94.0946 1305.73 93.9939 1306 93.9961C1306.26 93.9984 1306.51 94.1036 1306.69 94.289C1306.88 94.4744 1306.99 94.7252 1306.99 94.9874C1306.99 95.2496 1306.89 95.5022 1306.71 95.6908L1301.76 100.641Z" fill="#94A3B8"/>
<path d="M1333.31 100.712L1328.36 95.7619C1328.18 95.5732 1328.08 95.3206 1328.08 95.0584C1328.09 94.7963 1328.19 94.5454 1328.38 94.36C1328.56 94.1746 1328.81 94.0695 1329.07 94.0672C1329.34 94.0649 1329.59 94.1657 1329.78 94.3479L1335.44 100.005C1335.62 100.192 1335.73 100.447 1335.73 100.712C1335.73 100.977 1335.62 101.231 1335.44 101.419L1329.78 107.076C1329.59 107.258 1329.34 107.359 1329.07 107.357C1328.81 107.354 1328.56 107.249 1328.38 107.064C1328.19 106.878 1328.09 106.627 1328.08 106.365C1328.08 106.103 1328.18 105.85 1328.36 105.662L1333.31 100.712Z" fill="#475569"/>
<rect x="433.181" y="88.1409" width="575.888" height="25" rx="5" fill="#F1F5F9"/>
<path d="M697.605 98.801V99.6331H694.178V98.801H697.605ZM695.338 97.26H696.422V103.571C696.422 103.785 696.455 103.948 696.521 104.057C696.588 104.166 696.674 104.239 696.779 104.274C696.885 104.309 696.998 104.326 697.119 104.326C697.209 104.326 697.303 104.319 697.4 104.303C697.502 104.283 697.578 104.268 697.629 104.256L697.635 105.141C697.549 105.168 697.436 105.194 697.295 105.217C697.158 105.244 696.992 105.258 696.797 105.258C696.531 105.258 696.287 105.205 696.064 105.1C695.842 104.994 695.664 104.819 695.531 104.573C695.402 104.323 695.338 103.987 695.338 103.565V97.26ZM699.961 99.7971V105.141H698.877V98.801H699.932L699.961 99.7971ZM701.941 98.7659L701.936 99.7737C701.846 99.7542 701.76 99.7424 701.678 99.7385C701.6 99.7307 701.51 99.7268 701.408 99.7268C701.158 99.7268 700.938 99.7659 700.746 99.844C700.555 99.9221 700.393 100.031 700.26 100.172C700.127 100.313 700.021 100.481 699.943 100.676C699.869 100.867 699.82 101.078 699.797 101.309L699.492 101.485C699.492 101.102 699.529 100.742 699.604 100.406C699.682 100.071 699.801 99.7737 699.961 99.5159C700.121 99.2542 700.324 99.051 700.57 98.9065C700.82 98.7581 701.117 98.6838 701.461 98.6838C701.539 98.6838 701.629 98.6936 701.73 98.7131C701.832 98.7288 701.902 98.7463 701.941 98.7659ZM706.447 104.057V100.793C706.447 100.543 706.396 100.326 706.295 100.143C706.197 99.9553 706.049 99.8108 705.85 99.7092C705.65 99.6077 705.404 99.5569 705.111 99.5569C704.838 99.5569 704.598 99.6038 704.391 99.6975C704.188 99.7913 704.027 99.9143 703.91 100.067C703.797 100.219 703.74 100.383 703.74 100.559H702.656C702.656 100.332 702.715 100.108 702.832 99.885C702.949 99.6624 703.117 99.4612 703.336 99.2815C703.559 99.0979 703.824 98.9534 704.133 98.8479C704.445 98.7385 704.793 98.6838 705.176 98.6838C705.637 98.6838 706.043 98.762 706.395 98.9182C706.75 99.0745 707.027 99.3108 707.227 99.6272C707.43 99.9397 707.531 100.332 707.531 100.805V103.758C707.531 103.969 707.549 104.194 707.584 104.432C707.623 104.67 707.68 104.875 707.754 105.047V105.141H706.623C706.568 105.016 706.525 104.85 706.494 104.643C706.463 104.432 706.447 104.237 706.447 104.057ZM706.635 101.297L706.646 102.059H705.551C705.242 102.059 704.967 102.084 704.725 102.135C704.482 102.182 704.279 102.254 704.115 102.352C703.951 102.449 703.826 102.573 703.74 102.721C703.654 102.865 703.611 103.035 703.611 103.231C703.611 103.43 703.656 103.612 703.746 103.776C703.836 103.94 703.971 104.071 704.15 104.168C704.334 104.262 704.559 104.309 704.824 104.309C705.156 104.309 705.449 104.239 705.703 104.098C705.957 103.957 706.158 103.785 706.307 103.582C706.459 103.379 706.541 103.182 706.553 102.99L707.016 103.512C706.988 103.676 706.914 103.858 706.793 104.057C706.672 104.256 706.51 104.448 706.307 104.631C706.107 104.811 705.869 104.961 705.592 105.082C705.318 105.199 705.01 105.258 704.666 105.258C704.236 105.258 703.859 105.174 703.535 105.006C703.215 104.838 702.965 104.614 702.785 104.332C702.609 104.047 702.521 103.729 702.521 103.377C702.521 103.037 702.588 102.739 702.721 102.481C702.854 102.219 703.045 102.002 703.295 101.83C703.545 101.655 703.846 101.522 704.197 101.432C704.549 101.342 704.941 101.297 705.375 101.297H706.635ZM710.326 96.1409V105.141H709.236V96.1409H710.326ZM714.199 98.801L711.434 101.76L709.887 103.365L709.799 102.211L710.906 100.887L712.875 98.801H714.199ZM713.209 105.141L710.947 102.117L711.51 101.151L714.486 105.141H713.209ZM715.031 102.041V101.906C715.031 101.449 715.098 101.026 715.23 100.635C715.363 100.24 715.555 99.8987 715.805 99.6096C716.055 99.3167 716.357 99.0901 716.713 98.9299C717.068 98.7659 717.467 98.6838 717.908 98.6838C718.354 98.6838 718.754 98.7659 719.109 98.9299C719.469 99.0901 719.773 99.3167 720.023 99.6096C720.277 99.8987 720.471 100.24 720.604 100.635C720.736 101.026 720.803 101.449 720.803 101.906V102.041C720.803 102.498 720.736 102.922 720.604 103.313C720.471 103.703 720.277 104.045 720.023 104.338C719.773 104.627 719.471 104.854 719.115 105.018C718.764 105.178 718.365 105.258 717.92 105.258C717.475 105.258 717.074 105.178 716.719 105.018C716.363 104.854 716.059 104.627 715.805 104.338C715.555 104.045 715.363 103.703 715.23 103.313C715.098 102.922 715.031 102.498 715.031 102.041ZM716.115 101.906V102.041C716.115 102.358 716.152 102.656 716.227 102.938C716.301 103.215 716.412 103.461 716.561 103.676C716.713 103.891 716.902 104.061 717.129 104.186C717.355 104.307 717.619 104.367 717.92 104.367C718.217 104.367 718.477 104.307 718.699 104.186C718.926 104.061 719.113 103.891 719.262 103.676C719.41 103.461 719.521 103.215 719.596 102.938C719.674 102.656 719.713 102.358 719.713 102.041V101.906C719.713 101.594 719.674 101.299 719.596 101.022C719.521 100.74 719.408 100.492 719.256 100.278C719.107 100.059 718.92 99.887 718.693 99.762C718.471 99.637 718.209 99.5745 717.908 99.5745C717.611 99.5745 717.35 99.637 717.123 99.762C716.9 99.887 716.713 100.059 716.561 100.278C716.412 100.492 716.301 100.74 716.227 101.022C716.152 101.299 716.115 101.594 716.115 101.906ZM723.246 99.7971V105.141H722.162V98.801H723.217L723.246 99.7971ZM725.227 98.7659L725.221 99.7737C725.131 99.7542 725.045 99.7424 724.963 99.7385C724.885 99.7307 724.795 99.7268 724.693 99.7268C724.443 99.7268 724.223 99.7659 724.031 99.844C723.84 99.9221 723.678 100.031 723.545 100.172C723.412 100.313 723.307 100.481 723.229 100.676C723.154 100.867 723.105 101.078 723.082 101.309L722.777 101.485C722.777 101.102 722.814 100.742 722.889 100.406C722.967 100.071 723.086 99.7737 723.246 99.5159C723.406 99.2542 723.609 99.051 723.855 98.9065C724.105 98.7581 724.402 98.6838 724.746 98.6838C724.824 98.6838 724.914 98.6936 725.016 98.7131C725.117 98.7288 725.188 98.7463 725.227 98.7659ZM725.52 104.567C725.52 104.383 725.576 104.229 725.689 104.104C725.807 103.975 725.975 103.91 726.193 103.91C726.412 103.91 726.578 103.975 726.691 104.104C726.809 104.229 726.867 104.383 726.867 104.567C726.867 104.746 726.809 104.899 726.691 105.024C726.578 105.149 726.412 105.211 726.193 105.211C725.975 105.211 725.807 105.149 725.689 105.024C725.576 104.899 725.52 104.746 725.52 104.567ZM732.404 104.057V100.793C732.404 100.543 732.354 100.326 732.252 100.143C732.154 99.9553 732.006 99.8108 731.807 99.7092C731.607 99.6077 731.361 99.5569 731.068 99.5569C730.795 99.5569 730.555 99.6038 730.348 99.6975C730.145 99.7913 729.984 99.9143 729.867 100.067C729.754 100.219 729.697 100.383 729.697 100.559H728.613C728.613 100.332 728.672 100.108 728.789 99.885C728.906 99.6624 729.074 99.4612 729.293 99.2815C729.516 99.0979 729.781 98.9534 730.09 98.8479C730.402 98.7385 730.75 98.6838 731.133 98.6838C731.594 98.6838 732 98.762 732.352 98.9182C732.707 99.0745 732.984 99.3108 733.184 99.6272C733.387 99.9397 733.488 100.332 733.488 100.805V103.758C733.488 103.969 733.506 104.194 733.541 104.432C733.58 104.67 733.637 104.875 733.711 105.047V105.141H732.58C732.525 105.016 732.482 104.85 732.451 104.643C732.42 104.432 732.404 104.237 732.404 104.057ZM732.592 101.297L732.604 102.059H731.508C731.199 102.059 730.924 102.084 730.682 102.135C730.439 102.182 730.236 102.254 730.072 102.352C729.908 102.449 729.783 102.573 729.697 102.721C729.611 102.865 729.568 103.035 729.568 103.231C729.568 103.43 729.613 103.612 729.703 103.776C729.793 103.94 729.928 104.071 730.107 104.168C730.291 104.262 730.516 104.309 730.781 104.309C731.113 104.309 731.406 104.239 731.66 104.098C731.914 103.957 732.115 103.785 732.264 103.582C732.416 103.379 732.498 103.182 732.51 102.99L732.973 103.512C732.945 103.676 732.871 103.858 732.75 104.057C732.629 104.256 732.467 104.448 732.264 104.631C732.064 104.811 731.826 104.961 731.549 105.082C731.275 105.199 730.967 105.258 730.623 105.258C730.193 105.258 729.816 105.174 729.492 105.006C729.172 104.838 728.922 104.614 728.742 104.332C728.566 104.047 728.479 103.729 728.479 103.377C728.479 103.037 728.545 102.739 728.678 102.481C728.811 102.219 729.002 102.002 729.252 101.83C729.502 101.655 729.803 101.522 730.154 101.432C730.506 101.342 730.898 101.297 731.332 101.297H732.592ZM736.277 100.02V107.578H735.188V98.801H736.184L736.277 100.02ZM740.549 101.918V102.041C740.549 102.502 740.494 102.93 740.385 103.324C740.275 103.715 740.115 104.055 739.904 104.344C739.697 104.633 739.441 104.858 739.137 105.018C738.832 105.178 738.482 105.258 738.088 105.258C737.686 105.258 737.33 105.192 737.021 105.059C736.713 104.926 736.451 104.733 736.236 104.479C736.021 104.225 735.85 103.92 735.721 103.565C735.596 103.209 735.51 102.809 735.463 102.364V101.707C735.51 101.239 735.598 100.819 735.727 100.448C735.855 100.076 736.025 99.76 736.236 99.4983C736.451 99.2327 736.711 99.0315 737.016 98.8948C737.32 98.7542 737.672 98.6838 738.07 98.6838C738.469 98.6838 738.822 98.762 739.131 98.9182C739.439 99.0706 739.699 99.2893 739.91 99.5745C740.121 99.8596 740.279 100.201 740.385 100.6C740.494 100.994 740.549 101.434 740.549 101.918ZM739.459 102.041V101.918C739.459 101.602 739.426 101.305 739.359 101.028C739.293 100.746 739.189 100.5 739.049 100.289C738.912 100.074 738.736 99.9065 738.521 99.7854C738.307 99.6604 738.051 99.5979 737.754 99.5979C737.48 99.5979 737.242 99.6448 737.039 99.7385C736.84 99.8323 736.67 99.9592 736.529 100.119C736.389 100.276 736.273 100.455 736.184 100.658C736.098 100.858 736.033 101.065 735.99 101.28V102.797C736.068 103.071 736.178 103.328 736.318 103.571C736.459 103.809 736.646 104.002 736.881 104.151C737.115 104.295 737.41 104.367 737.766 104.367C738.059 104.367 738.311 104.307 738.521 104.186C738.736 104.061 738.912 103.891 739.049 103.676C739.189 103.461 739.293 103.215 739.359 102.938C739.426 102.656 739.459 102.358 739.459 102.041ZM743.016 100.02V107.578H741.926V98.801H742.922L743.016 100.02ZM747.287 101.918V102.041C747.287 102.502 747.232 102.93 747.123 103.324C747.014 103.715 746.854 104.055 746.643 104.344C746.436 104.633 746.18 104.858 745.875 105.018C745.57 105.178 745.221 105.258 744.826 105.258C744.424 105.258 744.068 105.192 743.76 105.059C743.451 104.926 743.189 104.733 742.975 104.479C742.76 104.225 742.588 103.92 742.459 103.565C742.334 103.209 742.248 102.809 742.201 102.364V101.707C742.248 101.239 742.336 100.819 742.465 100.448C742.594 100.076 742.764 99.76 742.975 99.4983C743.189 99.2327 743.449 99.0315 743.754 98.8948C744.059 98.7542 744.41 98.6838 744.809 98.6838C745.207 98.6838 745.561 98.762 745.869 98.9182C746.178 99.0706 746.438 99.2893 746.648 99.5745C746.859 99.8596 747.018 100.201 747.123 100.6C747.232 100.994 747.287 101.434 747.287 101.918ZM746.197 102.041V101.918C746.197 101.602 746.164 101.305 746.098 101.028C746.031 100.746 745.928 100.5 745.787 100.289C745.65 100.074 745.475 99.9065 745.26 99.7854C745.045 99.6604 744.789 99.5979 744.492 99.5979C744.219 99.5979 743.98 99.6448 743.777 99.7385C743.578 99.8323 743.408 99.9592 743.268 100.119C743.127 100.276 743.012 100.455 742.922 100.658C742.836 100.858 742.771 101.065 742.729 101.28V102.797C742.807 103.071 742.916 103.328 743.057 103.571C743.197 103.809 743.385 104.002 743.619 104.151C743.854 104.295 744.148 104.367 744.504 104.367C744.797 104.367 745.049 104.307 745.26 104.186C745.475 104.061 745.65 103.891 745.787 103.676C745.928 103.461 746.031 103.215 746.098 102.938C746.164 102.656 746.197 102.358 746.197 102.041Z" fill="#94A3B8"/>
<rect x="80" y="121.141" width="1280" height="797" fill="#DBEAFE"/>
<path d="M80 122.204H294.405V918.141H80V122.204Z" fill="#BFDBFE"/>
<path d="M105.729 197.653C105.729 190.61 111.488 184.901 118.593 184.901H255.812C262.917 184.901 268.677 190.61 268.677 197.653C268.677 204.696 262.917 210.405 255.812 210.405H118.593C111.488 210.405 105.729 204.696 105.729 197.653Z" fill="#93C5FD"/>
<path d="M157.186 286.917C157.186 283.395 160.066 280.541 163.618 280.541H270.821C274.373 280.541 277.253 283.395 277.253 286.917C277.253 290.438 274.373 293.293 270.821 293.293H163.618C160.066 293.293 157.186 290.438 157.186 286.917Z" fill="white"/>
<path d="M157.186 354.928C157.186 351.406 160.066 348.552 163.618 348.552H237.588C241.14 348.552 244.02 351.406 244.02 354.928C244.02 358.449 241.14 361.304 237.588 361.304H163.618C160.066 361.304 157.186 358.449 157.186 354.928Z" fill="white"/>
<path d="M157.186 422.938C157.186 419.417 160.066 416.562 163.618 416.562H255.812C259.365 416.562 262.245 419.417 262.245 422.938C262.245 426.46 259.365 429.314 255.812 429.314H163.618C160.066 429.314 157.186 426.46 157.186 422.938Z" fill="white"/>
<path fill-rule="evenodd" clip-rule="evenodd" d="M122.881 300.732C130.578 300.732 136.817 294.547 136.817 286.917C136.817 279.287 130.578 273.102 122.881 273.102C115.184 273.102 108.945 279.287 108.945 286.917C108.945 294.547 115.184 300.732 122.881 300.732ZM122.881 303.92C132.354 303.92 140.033 296.307 140.033 286.917C140.033 277.527 132.354 269.914 122.881 269.914C113.408 269.914 105.729 277.527 105.729 286.917C105.729 296.307 113.408 303.92 122.881 303.92Z" fill="#93C5FD"/>
<path d="M363.015 197.653C363.015 192.958 366.855 189.152 371.591 189.152H495.946C500.683 189.152 504.523 192.958 504.523 197.653C504.523 202.348 500.683 206.154 495.946 206.154H371.591C366.855 206.154 363.015 202.348 363.015 197.653Z" fill="#BFDBFE"/>
<path fill-rule="evenodd" clip-rule="evenodd" d="M590.821 540.427C590.884 534.366 595.741 529.205 601.985 529.205C605.817 529.205 608.636 531.085 610.435 532.856C610.936 533.349 611.365 533.84 611.725 534.294C612.085 533.84 612.515 533.349 613.016 532.856C614.815 531.085 617.634 529.205 621.466 529.205C627.71 529.205 632.567 534.366 632.63 540.427L632.63 540.428C632.749 552.249 623.166 560.428 613.534 566.909C613.001 567.269 612.371 567.461 611.725 567.461C611.08 567.461 610.45 567.269 609.916 566.909C600.283 560.428 590.701 552.249 590.821 540.427L590.821 540.427ZM613.162 537.892C612.889 538.429 612.333 538.769 611.725 538.769C611.118 538.769 610.562 538.429 610.289 537.892C610.289 537.891 610.288 537.89 610.287 537.888C610.285 537.884 610.282 537.878 610.277 537.869C610.275 537.865 610.272 537.86 610.269 537.854C610.251 537.82 610.221 537.766 610.179 537.693C610.095 537.547 609.963 537.33 609.784 537.065C609.425 536.533 608.886 535.823 608.169 535.118C606.728 533.7 604.677 532.393 601.985 532.393C597.623 532.393 594.083 536.026 594.037 540.46M613.162 537.892C613.162 537.891 613.163 537.89 613.164 537.888C613.167 537.882 613.173 537.871 613.182 537.854C613.2 537.82 613.23 537.766 613.272 537.693C613.356 537.547 613.488 537.33 613.666 537.065C614.026 536.533 614.565 535.823 615.282 535.118C616.722 533.7 618.774 532.393 621.466 532.393C625.828 532.393 629.368 536.026 629.414 540.459C629.514 550.421 621.443 557.734 611.727 564.272L611.725 564.273L611.724 564.272C602.007 557.734 593.936 550.421 594.037 540.46" fill="white"/>
<path d="M363.015 548.333C363.015 543.638 366.855 539.832 371.591 539.832H429.481C434.217 539.832 438.057 543.638 438.057 548.333C438.057 553.028 434.217 556.834 429.481 556.834H371.591C366.855 556.834 363.015 553.028 363.015 548.333Z" fill="#BFDBFE"/>
<path d="M455.209 548.333C455.209 543.638 459.049 539.832 463.786 539.832H560.268C565.005 539.832 568.844 543.638 568.844 548.333C568.844 553.028 565.005 556.834 560.268 556.834H463.786C459.049 556.834 455.209 553.028 455.209 548.333Z" fill="#BFDBFE"/>
<path d="M363.015 631.221C363.015 627.699 365.895 624.845 369.447 624.845H459.498C463.05 624.845 465.93 627.699 465.93 631.221C465.93 634.742 463.05 637.597 459.498 637.597H369.447C365.895 637.597 363.015 634.742 363.015 631.221Z" fill="white"/>
<path d="M363.015 660.975C363.015 657.454 365.895 654.599 369.447 654.599H507.739C511.291 654.599 514.171 657.454 514.171 660.975C514.171 664.497 511.291 667.351 507.739 667.351H369.447C365.895 667.351 363.015 664.497 363.015 660.975Z" fill="white"/>
<path d="M483.082 631.221C483.082 627.699 485.962 624.845 489.514 624.845H596.717C600.269 624.845 603.149 627.699 603.149 631.221C603.149 634.742 600.269 637.597 596.717 637.597H489.514C485.962 637.597 483.082 634.742 483.082 631.221Z" fill="white"/>
<path d="M363.015 280.541C363.015 277.019 365.895 274.165 369.447 274.165H459.498C463.05 274.165 465.93 277.019 465.93 280.541C465.93 284.062 463.05 286.917 459.498 286.917H369.447C365.895 286.917 363.015 284.062 363.015 280.541Z" fill="white"/>
<path d="M363.015 310.295C363.015 306.774 365.895 303.919 369.447 303.919H591.357C594.909 303.919 597.789 306.774 597.789 310.295C597.789 313.817 594.909 316.671 591.357 316.671H369.447C365.895 316.671 363.015 313.817 363.015 310.295Z" fill="white"/>
<path d="M483.082 280.541C483.082 277.019 485.962 274.165 489.514 274.165H733.936C737.489 274.165 740.368 277.019 740.368 280.541C740.368 284.062 737.489 286.917 733.936 286.917H489.514C485.962 286.917 483.082 284.062 483.082 280.541Z" fill="white"/>
<path fill-rule="evenodd" clip-rule="evenodd" d="M137.89 341.113H110.017V368.742H137.89V341.113ZM106.801 337.925V371.93H141.106V337.925H106.801Z" fill="#60A5FA"/>
<g clip-path="url(#clip1_2_7797)">
<rect x="822.915" y="197.653" width="214.405" height="291.171" rx="20" fill="white"/>
<path d="M965.736 489.075C965.736 562.755 905.98 622.484 832.266 622.484C758.553 622.484 698.796 562.755 698.796 489.075C698.796 415.395 758.553 355.666 832.266 355.666C905.98 355.666 965.736 415.395 965.736 489.075Z" fill="#FACC15"/>
<path fill-rule="evenodd" clip-rule="evenodd" d="M1067.08 311.051L997.345 241.92L927.605 311.051L997.345 380.181L1067.08 311.051ZM997.345 235.909L921.541 311.051L997.345 386.193L1073.15 311.051L997.345 235.909Z" fill="#BFDBFE"/>
</g>
<path d="M123.953 408.061L141.106 437.51H106.801L123.953 408.061Z" fill="#93C5FD"/>
<rect x="1071.62" y="197.653" width="214.405" height="214.659" rx="20" fill="white"/>
<path fill-rule="evenodd" clip-rule="evenodd" d="M1168.07 357.708C1189.45 357.708 1206.63 340.689 1206.63 319.874C1206.63 299.058 1189.45 282.04 1168.07 282.04C1146.7 282.04 1129.51 299.058 1129.51 319.874C1129.51 340.689 1146.7 357.708 1168.07 357.708ZM1168.07 368.335C1195.29 368.335 1217.35 346.638 1217.35 319.874C1217.35 293.11 1195.29 271.413 1168.07 271.413C1140.86 271.413 1118.79 293.11 1118.79 319.874C1118.79 346.638 1140.86 368.335 1168.07 368.335Z" fill="#BFDBFE"/>
<path d="M1190.47 304.535L1204.65 252.087L1243.38 290.481L1190.47 304.535Z" fill="#FACC15"/>
<g clip-path="url(#clip2_2_7797)">
<rect x="822.915" y="522.829" width="214.405" height="325.176" rx="20" fill="white"/>
<path fill-rule="evenodd" clip-rule="evenodd" d="M1023.92 889.449C1084.01 889.449 1132.73 841.158 1132.73 781.588C1132.73 722.018 1084.01 673.727 1023.92 673.727C963.825 673.727 915.109 722.018 915.109 781.588C915.109 841.158 963.825 889.449 1023.92 889.449ZM1023.92 900.076C1089.93 900.076 1143.45 847.027 1143.45 781.588C1143.45 716.149 1089.93 663.101 1023.92 663.101C957.905 663.101 904.389 716.149 904.389 781.588C904.389 847.027 957.905 900.076 1023.92 900.076Z" fill="#FACC15"/>
<path d="M935.477 619.772C935.477 639.859 918.918 656.143 898.492 656.143C878.066 656.143 861.507 639.859 861.507 619.772C861.507 599.685 878.066 583.401 898.492 583.401C918.918 583.401 935.477 599.685 935.477 619.772Z" fill="#BFDBFE"/>
<path fill-rule="evenodd" clip-rule="evenodd" d="M898.492 652.955C917.166 652.955 932.261 638.075 932.261 619.772C932.261 601.469 917.166 586.589 898.492 586.589C879.818 586.589 864.723 601.469 864.723 619.772C864.723 638.075 879.818 652.955 898.492 652.955ZM898.492 656.143C918.918 656.143 935.477 639.859 935.477 619.772C935.477 599.685 918.918 583.401 898.492 583.401C878.066 583.401 861.507 599.685 861.507 619.772C861.507 639.859 878.066 656.143 898.492 656.143Z" fill="#BFDBFE"/>
</g>
<g clip-path="url(#clip3_2_7797)">
<rect x="1071.62" y="446.317" width="214.405" height="363.432" rx="20" fill="white"/>
<path d="M1335.34 708.264C1335.34 734.381 1314.23 755.553 1288.17 755.553C1262.12 755.553 1241.01 734.381 1241.01 708.264C1241.01 682.147 1262.12 660.976 1288.17 660.976C1314.23 660.976 1335.34 682.147 1335.34 708.264Z" fill="white"/>
<path fill-rule="evenodd" clip-rule="evenodd" d="M1288.17 752.365C1312.41 752.365 1332.13 732.654 1332.13 708.264C1332.13 683.874 1312.41 664.164 1288.17 664.164C1263.93 664.164 1244.22 683.874 1244.22 708.264C1244.22 732.654 1263.93 752.365 1288.17 752.365ZM1288.17 755.553C1314.23 755.553 1335.34 734.381 1335.34 708.264C1335.34 682.147 1314.23 660.976 1288.17 660.976C1262.12 660.976 1241.01 682.147 1241.01 708.264C1241.01 734.381 1262.12 755.553 1288.17 755.553Z" fill="#BFDBFE"/>
<path d="M1249.58 574.368C1249.58 609.288 1221.26 637.597 1186.33 637.597C1151.4 637.597 1123.08 609.288 1123.08 574.368C1123.08 539.448 1151.4 511.14 1186.33 511.14C1221.26 511.14 1249.58 539.448 1249.58 574.368Z" fill="#BFDBFE"/>
<path d="M1111.29 696.044L1114.31 704.669L1123.52 704.855L1116.18 710.372L1118.85 719.112L1111.29 713.896L1103.73 719.112L1106.4 710.372L1099.06 704.855L1108.27 704.669L1111.29 696.044Z" fill="#FACC15"/>
<path d="M1155.24 696.044L1158.27 704.669L1167.48 704.855L1160.14 710.372L1162.8 719.112L1155.24 713.896L1147.68 719.112L1150.35 710.372L1143.01 704.855L1152.22 704.669L1155.24 696.044Z" fill="#FACC15"/>
<path d="M1199.2 696.044L1202.22 704.669L1211.43 704.855L1204.09 710.372L1206.76 719.112L1199.2 713.896L1191.63 719.112L1194.3 710.372L1186.96 704.855L1196.17 704.669L1199.2 696.044Z" fill="#FACC15"/>
<path d="M1243.15 696.044L1246.17 704.669L1255.38 704.855L1248.04 710.372L1250.71 719.112L1243.15 713.896L1235.59 719.112L1238.26 710.372L1230.91 704.855L1240.12 704.669L1243.15 696.044Z" fill="#FACC15"/>
<path d="M1287.1 696.044L1290.13 704.669L1299.34 704.855L1292 710.372L1294.66 719.112L1287.1 713.896L1279.54 719.112L1282.21 710.372L1274.87 704.855L1284.08 704.669L1287.1 696.044Z" fill="#FACC15"/>
</g>
</g>
<rect x="75" y="75.1409" width="1290" height="848" rx="25" stroke="white" stroke-opacity="0.07" stroke-width="10"/>
</g>
<defs>
<filter id="filter0_b_2_7797" x="20" y="20.1409" width="1400" height="958" filterUnits="userSpaceOnUse" color-interpolation-filters="sRGB">
<feFlood flood-opacity="0" result="BackgroundImageFix"/>
<feGaussianBlur in="BackgroundImageFix" stdDeviation="25"/>
<feComposite in2="SourceAlpha" operator="in" result="effect1_backgroundBlur_2_7797"/>
<feBlend mode="normal" in="SourceGraphic" in2="effect1_backgroundBlur_2_7797" result="shape"/>
</filter>
<clipPath id="clip0_2_7797">
<rect x="80" y="80.1409" width="1280" height="838" rx="20" fill="white"/>
</clipPath>
<clipPath id="clip1_2_7797">
<rect x="822.915" y="197.653" width="214.405" height="291.171" rx="20" fill="white"/>
</clipPath>
<clipPath id="clip2_2_7797">
<rect x="822.915" y="522.829" width="214.405" height="325.176" rx="20" fill="white"/>
</clipPath>
<clipPath id="clip3_2_7797">
<rect x="1071.62" y="446.317" width="214.405" height="363.432" rx="20" fill="white"/>
</clipPath>
</defs>
</svg>