<svg xmlns="http://www.w3.org/2000/svg" width="86" height="25" viewBox="0 0 86 25" fill="none">
<path d="M10.0312 7.59375V10.7812H0.1875V7.59375H10.0312ZM2.625 3.42188H7.125V19.4062C7.125 19.8958 7.1875 20.2708 7.3125 20.5312C7.44792 20.7917 7.64583 20.974 7.90625 21.0781C8.16667 21.1719 8.49479 21.2188 8.89062 21.2188C9.17188 21.2188 9.42188 21.2083 9.64062 21.1875C9.86979 21.1562 10.0625 21.125 10.2188 21.0938L10.2344 24.4062C9.84896 24.5312 9.43229 24.6302 8.98438 24.7031C8.53646 24.776 8.04167 24.8125 7.5 24.8125C6.51042 24.8125 5.64583 24.651 4.90625 24.3281C4.17708 23.9948 3.61458 23.4635 3.21875 22.7344C2.82292 22.0052 2.625 21.0469 2.625 19.8594V3.42188ZM17.0938 11.2812V24.5H12.5938V7.59375H16.8281L17.0938 11.2812ZM22.1875 7.48438L22.1094 11.6562C21.8906 11.625 21.625 11.599 21.3125 11.5781C21.0104 11.5469 20.7344 11.5312 20.4844 11.5312C19.849 11.5312 19.2969 11.6146 18.8281 11.7812C18.3698 11.9375 17.9844 12.1719 17.6719 12.4844C17.3698 12.7969 17.1406 13.1771 16.9844 13.625C16.8385 14.0729 16.7552 14.5833 16.7344 15.1562L15.8281 14.875C15.8281 13.7812 15.9375 12.776 16.1562 11.8594C16.375 10.9323 16.6927 10.125 17.1094 9.4375C17.5365 8.75 18.0573 8.21875 18.6719 7.84375C19.2865 7.46875 19.9896 7.28125 20.7812 7.28125C21.0312 7.28125 21.2865 7.30208 21.5469 7.34375C21.8073 7.375 22.0208 7.42188 22.1875 7.48438ZM32.9062 20.6875V13.1562C32.9062 12.6146 32.8177 12.151 32.6406 11.7656C32.4635 11.3698 32.1875 11.0625 31.8125 10.8438C31.4479 10.625 30.974 10.5156 30.3906 10.5156C29.8906 10.5156 29.4583 10.6042 29.0938 10.7812C28.7292 10.9479 28.4479 11.1927 28.25 11.5156C28.0521 11.8281 27.9531 12.1979 27.9531 12.625H23.4531C23.4531 11.9062 23.6198 11.224 23.9531 10.5781C24.2865 9.93229 24.7708 9.36458 25.4062 8.875C26.0417 8.375 26.7969 7.98438 27.6719 7.70312C28.5573 7.42188 29.5469 7.28125 30.6406 7.28125C31.9531 7.28125 33.1198 7.5 34.1406 7.9375C35.1615 8.375 35.9635 9.03125 36.5469 9.90625C37.1406 10.7812 37.4375 11.875 37.4375 13.1875V20.4219C37.4375 21.349 37.4948 22.1094 37.6094 22.7031C37.724 23.2865 37.8906 23.7969 38.1094 24.2344V24.5H33.5625C33.3438 24.0417 33.1771 23.4688 33.0625 22.7812C32.9583 22.0833 32.9062 21.3854 32.9062 20.6875ZM33.5 14.2031L33.5312 16.75H31.0156C30.4219 16.75 29.9062 16.8177 29.4688 16.9531C29.0312 17.0885 28.6719 17.2812 28.3906 17.5312C28.1094 17.7708 27.901 18.0521 27.7656 18.375C27.6406 18.6979 27.5781 19.0521 27.5781 19.4375C27.5781 19.8229 27.6667 20.1719 27.8438 20.4844C28.0208 20.7865 28.276 21.026 28.6094 21.2031C28.9427 21.3698 29.3333 21.4531 29.7812 21.4531C30.4583 21.4531 31.0469 21.3177 31.5469 21.0469C32.0469 20.776 32.4323 20.4427 32.7031 20.0469C32.9844 19.651 33.1302 19.276 33.1406 18.9219L34.3281 20.8281C34.1615 21.2552 33.9323 21.6979 33.6406 22.1562C33.3594 22.6146 33 23.0469 32.5625 23.4531C32.125 23.849 31.599 24.1771 30.9844 24.4375C30.3698 24.6875 29.6406 24.8125 28.7969 24.8125C27.724 24.8125 26.75 24.599 25.875 24.1719C25.0104 23.7344 24.3229 23.1354 23.8125 22.375C23.3125 21.6042 23.0625 20.7292 23.0625 19.75C23.0625 18.8646 23.2292 18.0781 23.5625 17.3906C23.8958 16.7031 24.3854 16.125 25.0312 15.6562C25.6875 15.1771 26.5052 14.8177 27.4844 14.5781C28.4635 14.3281 29.599 14.2031 30.8906 14.2031H33.5ZM45.4062 0.484375V24.5H40.9062V0.484375H45.4062ZM56.0625 7.59375L48.7188 15.9688L44.7812 19.9531L43.1406 16.7031L46.2656 12.7344L50.6562 7.59375H56.0625ZM51.3906 24.5L46.3906 16.6875L49.5 13.9688L56.5781 24.5H51.3906ZM57.2812 16.2188V15.8906C57.2812 14.651 57.4583 13.5104 57.8125 12.4688C58.1667 11.4167 58.6823 10.5052 59.3594 9.73438C60.0365 8.96354 60.8698 8.36458 61.8594 7.9375C62.849 7.5 63.9844 7.28125 65.2656 7.28125C66.5469 7.28125 67.6875 7.5 68.6875 7.9375C69.6875 8.36458 70.526 8.96354 71.2031 9.73438C71.8906 10.5052 72.4115 11.4167 72.7656 12.4688C73.1198 13.5104 73.2969 14.651 73.2969 15.8906V16.2188C73.2969 17.4479 73.1198 18.5885 72.7656 19.6406C72.4115 20.6823 71.8906 21.5938 71.2031 22.375C70.526 23.1458 69.6927 23.7448 68.7031 24.1719C67.7135 24.599 66.5781 24.8125 65.2969 24.8125C64.0156 24.8125 62.875 24.599 61.875 24.1719C60.8854 23.7448 60.0469 23.1458 59.3594 22.375C58.6823 21.5938 58.1667 20.6823 57.8125 19.6406C57.4583 18.5885 57.2812 17.4479 57.2812 16.2188ZM61.7812 15.8906V16.2188C61.7812 16.9271 61.8438 17.5885 61.9688 18.2031C62.0938 18.8177 62.2917 19.3594 62.5625 19.8281C62.8438 20.2865 63.2083 20.6458 63.6562 20.9062C64.1042 21.1667 64.651 21.2969 65.2969 21.2969C65.9219 21.2969 66.4583 21.1667 66.9062 20.9062C67.3542 20.6458 67.7135 20.2865 67.9844 19.8281C68.2552 19.3594 68.4531 18.8177 68.5781 18.2031C68.7135 17.5885 68.7812 16.9271 68.7812 16.2188V15.8906C68.7812 15.2031 68.7135 14.5573 68.5781 13.9531C68.4531 13.3385 68.25 12.7969 67.9688 12.3281C67.6979 11.849 67.3385 11.474 66.8906 11.2031C66.4427 10.9323 65.901 10.7969 65.2656 10.7969C64.6302 10.7969 64.0885 10.9323 63.6406 11.2031C63.2031 11.474 62.8438 11.849 62.5625 12.3281C62.2917 12.7969 62.0938 13.3385 61.9688 13.9531C61.8438 14.5573 61.7812 15.2031 61.7812 15.8906ZM80.5625 11.2812V24.5H76.0625V7.59375H80.2969L80.5625 11.2812ZM85.6562 7.48438L85.5781 11.6562C85.3594 11.625 85.0938 11.599 84.7812 11.5781C84.4792 11.5469 84.2031 11.5312 83.9531 11.5312C83.3177 11.5312 82.7656 11.6146 82.2969 11.7812C81.8385 11.9375 81.4531 12.1719 81.1406 12.4844C80.8385 12.7969 80.6094 13.1771 80.4531 13.625C80.3073 14.0729 80.224 14.5833 80.2031 15.1562L79.2969 14.875C79.2969 13.7812 79.4062 12.776 79.625 11.8594C79.8438 10.9323 80.1615 10.125 80.5781 9.4375C81.0052 8.75 81.526 8.21875 82.1406 7.84375C82.7552 7.46875 83.4583 7.28125 84.25 7.28125C84.5 7.28125 84.7552 7.30208 85.0156 7.34375C85.276 7.375 85.4896 7.42188 85.6562 7.48438Z" fill="white"/>
</svg>